<svg width="40" height="40" viewBox="0 0 40 40" fill="none" xmlns="http://www.w3.org/2000/svg">
<path d="M5.85938 7.10938H1.17188C0.524141 7.10938 0 7.63352 0 8.28125C0 8.92898 0.524141 9.45312 1.17188 9.45312H2.34375V14.1406H4.6875V9.45312H5.85938C6.50711 9.45312 7.03125 8.92898 7.03125 8.28125C7.03125 7.63352 6.50711 7.10938 5.85938 7.10938Z" fill="#FC5252"/>
<path d="M36.4844 14.1406H35.3125V9.23727C36.6736 8.75187 37.6562 7.46328 37.6562 5.9375C37.6562 3.99891 36.0792 2.42188 34.1406 2.42188C32.202 2.42188 30.625 3.99891 30.625 5.9375C30.625 7.46328 31.6077 8.75187 32.9688 9.23727V14.1406H31.7969C31.1491 14.1406 30.625 14.6648 30.625 15.3125C30.625 15.9602 31.1491 16.4844 31.7969 16.4844H32.9688V18.8281H35.3125V16.4844H36.4844C37.1321 16.4844 37.6562 15.9602 37.6562 15.3125C37.6562 14.6648 37.1321 14.1406 36.4844 14.1406Z" fill="#FC5252"/>
<path d="M37.6562 21.1719H8.20312C6.91109 21.1719 5.85938 20.1202 5.85938 18.8281V17.6562C5.85938 17.0085 5.33523 16.4844 4.6875 16.4844H2.34375C1.69602 16.4844 1.17188 17.0085 1.17188 17.6562V18.8281C1.17188 22.7054 4.32586 25.8594 8.20312 25.8594H12.0859C13.2038 32.5077 18.9713 37.5781 25.9375 37.5781C33.7041 37.5781 40 31.2822 40 23.5156C40 22.2212 38.9507 21.1719 37.6562 21.1719Z" fill="#FC5252"/>
<path d="M27.1094 14.1406H25.9375V9.23727C27.2986 8.75187 28.2812 7.46328 28.2812 5.9375C28.2812 3.99891 26.7042 2.42188 24.7656 2.42188C22.827 2.42188 21.25 3.99891 21.25 5.9375C21.25 7.46328 22.2327 8.75187 23.5938 9.23727V14.1406H22.4219C21.7741 14.1406 21.25 14.6648 21.25 15.3125C21.25 15.9602 21.7741 16.4844 22.4219 16.4844H23.5938V18.8281H25.9375V16.4844H27.1094C27.7571 16.4844 28.2812 15.9602 28.2812 15.3125C28.2812 14.6648 27.7571 14.1406 27.1094 14.1406Z" fill="#FC5252"/>
<path d="M17.7344 14.1406H16.5625V9.23727C17.9236 8.75187 18.9062 7.46328 18.9062 5.9375C18.9062 3.99891 17.3292 2.42188 15.3906 2.42188C13.452 2.42188 11.875 3.99891 11.875 5.9375C11.875 7.46328 12.8577 8.75187 14.2188 9.23727V14.1406H13.0469C12.3991 14.1406 11.875 14.6648 11.875 15.3125C11.875 15.9602 12.3991 16.4844 13.0469 16.4844H14.2188V18.8281H16.5625V16.4844H17.7344C18.3821 16.4844 18.9062 15.9602 18.9062 15.3125C18.9062 14.6648 18.3821 14.1406 17.7344 14.1406Z" fill="#FC5252"/>
</svg>
