<svg width="40" height="40" viewBox="0 0 40 40" fill="none" xmlns="http://www.w3.org/2000/svg">
<g clip-path="url(#clip0_893_972)">
<path d="M23.8838 12.7817L25.5209 11.1446L28.9022 14.5259L27.2651 16.163L23.8838 12.7817Z" fill="#C00096"/>
<path d="M20.6094 16.056L22.2465 14.4189L25.6278 17.8003L23.9907 19.4374L20.6094 16.056Z" fill="#C00096"/>
<path d="M29.4627 5.18951C29.2756 5.27858 29.1923 5.49748 29.2731 5.68779L29.2883 5.72365L29.681 6.99162C29.66 7.01053 29.639 7.02936 29.6186 7.04967L27.1626 9.50561L30.5445 12.8874L33.0005 10.4315C33.028 10.404 33.0541 10.3758 33.079 10.3471L34.3484 10.7403C34.5302 10.7966 34.7291 10.7094 34.8109 10.5375C36.4045 7.18928 39.6355 5.63631 39.7769 5.56975C39.8714 5.52592 39.9452 5.44428 39.9793 5.34569C40.0134 5.24725 40.0058 5.13748 39.9586 5.04459L38.3318 1.84647C38.3134 1.81022 38.2894 1.77725 38.2605 1.7485C38.2318 1.71975 38.1988 1.69576 38.1627 1.6774L35.01 0.0737315L34.9831 0.057169C34.9025 0.0074815 34.8067 -0.0107216 34.7133 0.00584088C34.5892 0.0278721 34.4836 0.109278 34.4306 0.223653C34.4151 0.257091 32.8436 3.58045 29.4627 5.18951Z" fill="#C00096"/>
<path d="M20.8805 30.2374C20.8369 29.5353 21.2889 28.9081 21.9551 28.7461C23.1293 28.4605 24.2015 27.8537 25.0558 26.9913C25.6632 26.3781 26.1357 25.6624 26.4604 24.8641C26.6361 24.4323 26.5354 23.938 26.2067 23.6094C26.2017 23.6044 26.1967 23.5994 26.1915 23.5945C25.8508 23.266 25.3446 23.1779 24.9129 23.3721C23.736 23.9016 22.1471 23.612 20.7476 22.6839L22.3574 21.0742L18.9755 17.6924L17.956 18.712C17.7316 17.5913 17.9317 16.5384 18.6132 15.857C18.809 15.6612 19.0394 15.5005 19.2979 15.3793C19.7457 15.1695 20.0107 14.6984 19.9576 14.2068C19.9046 13.7152 19.5452 13.3115 19.063 13.202C16.8542 12.7002 14.5826 13.3463 12.9863 14.9302C12.1221 15.7877 11.5153 16.864 11.2319 18.0425C11.0718 18.708 10.4449 19.1605 9.74112 19.1184C7.06534 18.9583 4.4512 19.9461 2.56886 21.8285C-0.856611 25.2539 -0.856611 30.8275 2.56886 34.2529L5.74706 37.4311C9.17253 40.8565 14.7461 40.8565 18.1716 37.4311C20.0599 35.5428 21.0471 32.9209 20.8805 30.2374ZM11.8375 30.6027L9.39737 28.1625C8.94526 27.7104 8.94526 26.9774 9.39737 26.5252C9.84948 26.0731 10.5825 26.0731 11.0347 26.5252L13.4749 28.9653C13.927 29.4175 13.927 30.1505 13.4749 30.6027C13.0227 31.0548 12.2896 31.0548 11.8375 30.6027ZM15.4978 26.9425L13.0576 24.5023C12.6055 24.0502 12.6055 23.3171 13.0576 22.8649C13.5097 22.4128 14.2428 22.4128 14.695 22.8649L17.1351 25.3051C17.5872 25.7572 17.5872 26.4903 17.1351 26.9425C16.683 27.3946 15.9499 27.3946 15.4978 26.9425Z" fill="#C00096"/>
</g>
<defs>
<clipPath id="clip0_893_972">
<rect width="40" height="40" fill="white"/>
</clipPath>
</defs>
</svg>
