<svg width="40" height="40" viewBox="0 0 40 40" fill="none" xmlns="http://www.w3.org/2000/svg">
<path d="M36.4844 6.52679H3.51562C1.57711 6.52679 0 8.1039 0 10.0424V29.9575C0 31.896 1.57711 33.4731 3.51562 33.4731H36.4844C38.4229 33.4731 40 31.896 40 29.9575V10.0424C40 8.1039 38.4229 6.52679 36.4844 6.52679ZM13.4672 28.9462C8.53422 28.9462 4.52094 24.933 4.52094 20C4.52094 15.067 8.53422 11.0537 13.4672 11.0537C18.4002 11.0537 22.4134 15.067 22.4134 20C22.4134 24.933 18.4002 28.9462 13.4672 28.9462ZM26.9423 16.6665V26.6208C26.9423 27.268 26.4176 27.7927 25.7704 27.7927C25.1232 27.7927 24.5985 27.268 24.5985 26.6208V16.6665C24.1775 16.4887 23.882 16.0721 23.882 15.5864C23.882 15.1007 24.1775 14.6841 24.5985 14.5063V13.6381C24.5985 12.9909 25.1232 12.4662 25.7704 12.4662C26.4176 12.4662 26.9423 12.9909 26.9423 13.6381V14.5063C27.3634 14.6841 27.6589 15.1007 27.6589 15.5864C27.6589 16.0721 27.3634 16.4887 26.9423 16.6665ZM31.197 25.1813V26.6207C31.197 27.2679 30.6723 27.7926 30.0252 27.7926C29.378 27.7926 28.8533 27.2679 28.8533 26.6207V25.1813C28.4323 25.0037 28.1366 24.587 28.1366 24.1012C28.1366 23.6155 28.4322 23.1988 28.8533 23.0212V13.6381C28.8533 12.9909 29.378 12.4662 30.0252 12.4662C30.6723 12.4662 31.197 12.9909 31.197 13.6381V23.0212C31.6181 23.199 31.9137 23.6156 31.9137 24.1013C31.9137 24.587 31.6181 25.0037 31.197 25.1813ZM35.4518 16.6665V26.6208C35.4518 27.268 34.9271 27.7927 34.2799 27.7927C33.6327 27.7927 33.108 27.268 33.108 26.6208V16.6665C32.687 16.4888 32.3914 16.0721 32.3914 15.5864C32.3914 15.1007 32.687 14.684 33.108 14.5063V13.6381C33.108 12.9909 33.6327 12.4662 34.2799 12.4662C34.9271 12.4662 35.4518 12.9909 35.4518 13.6381V14.5063C35.8729 14.6841 36.1684 15.1007 36.1684 15.5864C36.1684 16.0721 35.8729 16.4887 35.4518 16.6665Z" fill="#DB841D"/>
<path d="M13.4675 16.6177C11.6025 16.6177 10.0852 18.135 10.0852 20C10.0852 21.865 11.6025 23.3823 13.4675 23.3823C15.3325 23.3823 16.8497 21.865 16.8497 20C16.8497 18.135 15.3325 16.6177 13.4675 16.6177ZM13.4675 21.0385C12.8948 21.0385 12.429 20.5727 12.429 20C12.429 19.4273 12.8948 18.9615 13.4675 18.9615C14.0401 18.9615 14.506 19.4273 14.506 20C14.506 20.5727 14.0401 21.0385 13.4675 21.0385Z" fill="#DB841D"/>
</svg>
