<svg width="40" height="40" viewBox="0 0 40 40" fill="none" xmlns="http://www.w3.org/2000/svg">
<g clip-path="url(#clip0_893_984)">
<path d="M39.4887 12.2983L27.7019 0.51132C27.2206 0.0299142 26.503 -0.127117 25.8642 0.108899C25.2256 0.34507 24.7828 0.931476 24.7307 1.61038L23.7979 13.7365L17.7893 19.7451L16.0754 18.0311C15.3946 17.3503 14.2906 17.3503 13.6097 18.0311C12.9289 18.7119 12.9289 19.8158 13.6097 20.4967L15.3236 22.2105L11.8959 25.6383L10.1821 23.9245C9.50147 23.2435 8.39748 23.2437 7.71647 23.9245C7.03561 24.6053 7.03561 25.7091 7.71647 26.3901L9.43029 28.1041L3.21624 34.3182L2.97578 34.0777C2.295 33.3969 1.19101 33.3969 0.510155 34.0777C-0.170703 34.7585 -0.170703 35.8625 0.510155 36.5433L1.98351 38.0167L3.45687 39.49C3.79734 39.8304 4.24351 40.0006 4.6896 40.0006C5.13585 40.0006 5.58202 39.8303 5.92233 39.49C6.60319 38.8091 6.60319 37.7052 5.92233 37.0243L5.68186 36.7839L9.31569 33.15C9.60834 33.9215 10.0622 34.6294 10.6632 35.2304C11.7796 36.3466 13.264 36.9615 14.8427 36.9615C16.4215 36.9615 17.9057 36.3467 19.022 35.2304L24.9158 29.3368C27.2202 27.0322 27.2202 23.2822 24.9156 20.9776C24.3146 20.3769 23.6066 19.9231 22.8353 19.6304L26.2635 16.2021L38.3896 15.2694C39.0685 15.2172 39.6549 14.7745 39.8911 14.1359C40.1273 13.4972 39.9702 12.7797 39.4887 12.2983ZM22.4502 26.8712L16.5564 32.7646C16.0986 33.2224 15.49 33.4745 14.8428 33.4745C14.1954 33.4745 13.5865 33.2224 13.1288 32.7646C12.6711 32.3068 12.419 31.6983 12.419 31.0508C12.419 30.4034 12.6711 29.7947 13.1288 29.337L19.0245 23.4414C19.4821 22.9851 20.0897 22.7336 20.7361 22.7336C21.3836 22.7336 21.9926 22.9858 22.4503 23.4433C23.395 24.3885 23.395 25.9262 22.4502 26.8712Z" fill="#84C4FF"/>
</g>
<defs>
<clipPath id="clip0_893_984">
<rect width="40" height="40" fill="white"/>
</clipPath>
</defs>
</svg>
